<svg xmlns="http://www.w3.org/2000/svg" xmlns:xlink="http://www.w3.org/1999/xlink" width="32" height="32" viewBox="0 0 32 32" fill="none"><rect x="0" y="0" width="32" height="32"   fill="#262424" ></rect><circle cx="16" cy="16" r="16"   fill="#70B985" ></circle><rect  x="15.1416015625" y="12.956161499023438" width="8.1356201171875" height="8.1356201171875" transform="rotate(4.403451457963893e-9 15.1416015625 12.956161499023438)" rx="2.1694915254237306"    fill="#030301" ></rect><path d="M19.9316 17.0682C19.9316 17.4427 19.6281 17.7462 19.2536 17.7462C18.8792 17.7462 18.5757 17.4427 18.5757 17.0682C18.5757 16.6938 18.8792 16.3903 19.2536 16.3903C19.6281 16.3903 19.9316 16.6938 19.9316 17.0682Z"   fill="#5B9173" ></path><rect  x="7.649169921875" y="14.062667846679688" width="8.629085540771484" height="8.629040718078613" transform="rotate(-45 7.649169921875 14.062667846679688)" rx="2.1694915254237306"    fill="#030301" ></rect><path   fill="rgba(112, 185, 133, 1)"  d="M8.90729 12.2527L11.9408 9.2191C12.9405 8.21947 14.5612 8.21947 15.5609 9.2191L18.5944 12.2526C19.594 13.2523 19.594 14.873 18.5944 15.8726L15.5608 18.9062C14.5612 19.9058 12.9405 19.9058 11.9408 18.9062L8.90729 15.8727C7.90765 14.873 7.90765 13.2523 8.90729 12.2527ZM9.45918 12.8046C8.76434 13.4994 8.76434 14.6259 9.45918 15.3208L12.4927 18.3543C13.1875 19.0492 14.3141 19.0492 15.0089 18.3543L18.0425 15.3208C18.7373 14.6259 18.7373 13.4994 18.0425 12.8045L15.009 9.77099C14.3141 9.07615 13.1876 9.07615 12.4927 9.77099L9.45918 12.8046Z"></path><path d="M14.4446 14.0785C14.4446 14.453 14.141 14.7565 13.7666 14.7565C13.3922 14.7565 13.0886 14.453 13.0886 14.0785C13.0886 13.7041 13.3922 13.4006 13.7666 13.4006C14.141 13.4006 14.4446 13.7041 14.4446 14.0785Z"   fill="#5B9173" ></path><path d="M14.4446 10.8243C14.4446 11.1987 14.141 11.5022 13.7666 11.5022C13.3922 11.5022 13.0886 11.1987 13.0886 10.8243C13.0886 10.4499 13.3922 10.1463 13.7666 10.1463C14.141 10.1463 14.4446 10.4499 14.4446 10.8243Z"   fill="#5B9173" ></path><path d="M14.4446 17.3327C14.4446 17.7071 14.141 18.0107 13.7666 18.0107C13.3922 18.0107 13.0886 17.7071 13.0886 17.3327C13.0886 16.9583 13.3922 16.6547 13.7666 16.6547C14.141 16.6547 14.4446 16.9583 14.4446 17.3327Z"   fill="#5B9173" ></path><path d="M11.1899 14.0785C11.1899 14.453 10.8864 14.7565 10.512 14.7565C10.1375 14.7565 9.83398 14.453 9.83398 14.0785C9.83398 13.7041 10.1375 13.4006 10.512 13.4006C10.8864 13.4006 11.1899 13.7041 11.1899 14.0785Z"   fill="#5B9173" ></path><path d="M17.6986 14.0785C17.6986 14.453 17.395 14.7565 17.0206 14.7565C16.6462 14.7565 16.3427 14.453 16.3427 14.0785C16.3427 13.7041 16.6462 13.4006 17.0206 13.4006C17.395 13.4006 17.6986 13.7041 17.6986 14.0785Z"   fill="#5B9173" ></path></svg>